<svg width="62" height="60" viewBox="0 0 62 60" fill="none" xmlns="http://www.w3.org/2000/svg">
<path d="M33.0103 4.43016L39.6353 18.1C40.0024 18.8575 40.7112 19.3803 41.5313 19.5016L56.3474 21.6944C58.4112 22.0006 59.2372 24.5831 57.7435 26.0662L47.0239 36.7062C46.4303 37.2947 46.1589 38.1436 46.2995 38.9746L48.83 53.9983C49.1834 56.0918 47.0239 57.6882 45.1767 56.7001L31.9247 49.6047C31.1905 49.2131 30.3157 49.2131 29.5816 49.6047L16.3295 56.6981C14.4824 57.6862 12.3248 56.0898 12.6762 53.9963L15.2068 38.9726C15.3474 38.1416 15.076 37.2927 14.4824 36.7042L3.76278 26.0642C2.26906 24.5811 3.09305 21.9986 5.15886 21.6924L19.9749 19.4996C20.795 19.3783 21.5038 18.8535 21.8709 18.098L28.496 4.42817C29.4195 2.52361 32.0867 2.52361 33.0103 4.43016Z" fill="#E8253E" stroke="white" stroke-width="5" stroke-miterlimit="10"/>
</svg>
