<svg width="363" height="333" viewBox="0 0 363 333" fill="none" xmlns="http://www.w3.org/2000/svg">
<path d="M156.6 163.6L31.3 163.1L45.8 186.4L55.6001 202.3L72.9 201.8L83.7001 201.9C83.3001 205.9 83.4 209 83.4 215.5C83.4 217 83.5 232 86.6 246C93.4 277.4 112.7 298.5 112.7 298.5C133.4 321.1 158.1 326.5 170.5 329C183 331.5 212.5 337.5 242.9 320.1C250.1 316 277.1 299.2 288 265.1C291 255.6 292 247.2 292.4 241.4H240.1C239.6 244.2 239 247 238.5 249.9C238 251.8 237 254.5 235.3 257.5C228.9 269 218 273.1 212.3 275.3C196.5 281.3 182.9 277.7 180.2 277C167.8 273.5 159.7 266.1 156.1 262.2C147 252.5 143.8 242.1 141.8 235.5C141 232.7 135.5 213.7 140.6 195.3C141.9 190.4 144.6 183.5 148.1 176.7C149.5 174 150.7 171.9 151.7 170.4L156.6 163.6Z" fill="#E8253E" stroke="#E8253E" stroke-miterlimit="10"/>
<path d="M238.9 183.5C256.7 183.5 274.5 183.5 292.3 183.5C291.9 179.3 291 173.6 289.1 167C282.8 145.1 270.3 131.6 265.7 126.8C242.6 102.5 213.5 98.8 204.7 98H52.4H1C6.3 108.9 11.6 119.7 16.8 130.6L26.3 151.2L42.7 150.7L63 150.5C107.6 150.4 152.7 150.2 197.3 150.1C197.3 150.1 196.6 150.1 197.9 150.2C197.9 150.2 201.7 150.6 204.6 151.3C209.2 152.4 215.4 154.2 221.7 158.6C229.1 163.8 233.1 171.2 235.2 176.4L236.4 180.6V183.6H238.9V183.5Z" fill="#E8253E" stroke="#E8253E" stroke-miterlimit="10"/>
<path d="M236.2 183.5L264.5 184.3H293.3L294.9 146.8L276.9 152L344.7 111.5L354.9 64.9L302 97.7L300.7 92.1L269.2 107.9L354.4 53.6L362.4 0L205.3 96.7L249.1 83.6L237.8 91L236.2 183.5Z" fill="#E8253E"/>
</svg>
