<svg width="448" height="448" viewBox="0 0 448 448" fill="none" xmlns="http://www.w3.org/2000/svg">
<path fill-rule="evenodd" clip-rule="evenodd" d="M382.73 65.1C362.021 44.3807 337.418 27.9621 310.337 16.7895C283.257 5.61691 254.234 -0.0890923 224.94 -6.64731e-07C102 -6.64731e-07 1.92 99.58 1.87 222C1.81561 260.981 12.091 299.281 31.65 333L0 448L118.25 417.13C150.982 434.862 187.623 444.143 224.85 444.13H224.94C347.87 444.13 447.94 344.54 448 222.13C448.074 192.936 442.342 164.018 431.137 137.059C419.931 110.101 403.477 85.64 382.73 65.1V65.1ZM224.94 406.66H224.86C191.674 406.67 159.091 397.789 130.5 380.94L123.73 376.94L53.56 395.26L72.29 327.17L67.88 320.17C49.3239 290.792 39.4925 256.748 39.53 222C39.53 120.27 122.74 37.5 225.01 37.5C274.07 37.4124 321.156 56.8153 355.911 91.4412C390.666 126.067 410.245 173.08 410.34 222.14C410.3 323.88 327.13 406.66 224.94 406.66V406.66ZM326.63 268.47C321.06 265.69 293.63 252.27 288.55 250.42C283.47 248.57 279.72 247.64 276.01 253.2C272.3 258.76 261.61 271.2 258.36 274.95C255.11 278.7 251.86 279.11 246.29 276.33C240.72 273.55 222.75 267.7 201.46 248.8C184.89 234.09 173.71 215.93 170.46 210.38C167.21 204.83 170.11 201.82 172.9 199.06C175.41 196.57 178.47 192.58 181.26 189.34C184.05 186.1 184.98 183.78 186.83 180.08C188.68 176.38 187.76 173.14 186.37 170.37C184.98 167.6 173.83 140.29 169.19 129.18C164.66 118.36 160.07 119.83 156.65 119.66C153.4 119.5 149.65 119.46 145.96 119.46C143.139 119.533 140.364 120.188 137.807 121.382C135.25 122.576 132.967 124.284 131.1 126.4C125.99 131.96 111.59 145.4 111.59 172.68C111.59 199.96 131.59 226.36 134.35 230.06C137.11 233.76 173.65 289.79 229.56 313.82C239.942 318.266 250.55 322.165 261.34 325.5C274.69 329.72 286.84 329.13 296.44 327.7C307.15 326.11 329.44 314.28 334.07 301.32C338.7 288.36 338.71 277.26 337.32 274.95C335.93 272.64 332.21 271.24 326.63 268.47V268.47Z" fill="white"/>
</svg>
