<svg width="513" height="385" viewBox="0 0 513 385" fill="none" xmlns="http://www.w3.org/2000/svg">
<path d="M509.64 84.79C509.64 39.79 476.54 3.59 435.64 3.59C380.24 0.999996 323.74 0 266 0H248C190.4 0 133.8 0.999999 78.4 3.6C37.6 3.6 4.50001 40 4.50001 85C2.00001 120.59 0.940008 156.19 1.00001 191.79C0.900008 227.39 2.03334 263.023 4.40001 298.69C4.40001 343.69 37.5 380.19 78.3 380.19C136.5 382.89 196.2 384.09 256.9 383.99C317.7 384.19 377.233 382.923 435.5 380.19C476.4 380.19 509.5 343.69 509.5 298.69C511.9 262.99 513 227.39 512.9 191.69C513.127 156.09 512.04 120.457 509.64 84.79ZM208 289.89V93.39L353 191.59L208 289.89Z" fill="white"/>
</svg>
